<?xml version="1.0" standalone="no"?>
<!DOCTYPE svg PUBLIC "-//W3C//DTD SVG 20010904//EN"
 "http://www.w3.org/TR/2001/REC-SVG-20010904/DTD/svg10.dtd">
<svg version="1.0" xmlns="http://www.w3.org/2000/svg"
 width="2304.000000pt" height="2304.000000pt" viewBox="0 0 2304.000000 2304.000000"
 preserveAspectRatio="xMidYMid meet">

<g transform="translate(0.000000,2304.000000) scale(0.100000,-0.100000)"
fill="#000000" stroke="none">
<path d="M10795 15184 c-67 -14 -188 -47 -230 -64 -129 -53 -331 -170 -292
-170 9 0 18 4 21 9 10 15 233 121 255 121 11 0 22 4 25 9 3 5 20 11 38 14 18
3 56 11 83 18 28 6 118 13 200 16 144 5 208 -2 290 -29 48 -16 154 -70 166
-85 15 -17 53 -17 87 1 52 26 185 67 282 86 30 6 74 15 98 21 65 14 357 11
432 -5 133 -28 270 -96 321 -160 10 -12 21 -18 25 -14 17 18 -116 121 -196
152 -151 59 -229 71 -450 70 -187 -1 -338 -20 -508 -63 -37 -10 -49 -8 -87 9
-139 63 -215 80 -365 79 -69 -1 -156 -8 -195 -15z"/>
<path d="M2169 14598 c229 -226 332 -382 572 -868 234 -474 366 -731 425 -835
16 -27 36 -63 44 -80 8 -16 34 -60 57 -98 24 -37 43 -70 43 -73 0 -6 150 -226
160 -234 3 -3 19 -23 35 -45 17 -22 32 -42 35 -45 3 -3 35 -41 72 -85 75 -90
327 -341 403 -401 28 -21 52 -41 55 -44 3 -3 21 -17 40 -30 19 -13 37 -27 40
-30 11 -14 170 -119 240 -160 41 -24 92 -54 112 -67 21 -12 40 -23 43 -23 4 0
34 -13 68 -29 110 -51 151 -68 232 -95 131 -43 140 -46 168 -46 14 0 28 -4 31
-9 18 -29 385 -35 516 -9 98 20 329 24 412 7 166 -34 306 -87 453 -173 185
-107 268 -138 314 -114 47 25 59 63 60 185 1 117 -5 153 -46 288 -37 120 -34
299 8 496 17 79 33 155 36 169 2 14 8 34 13 45 5 11 11 34 14 50 2 17 10 50
16 75 25 97 22 172 -10 255 -52 137 -95 208 -216 360 -145 182 -357 380 -557
519 -111 78 -169 108 -297 160 -52 21 -103 42 -112 47 -10 5 -29 9 -42 9 -14
0 -27 4 -30 9 -3 5 -20 11 -38 14 -18 3 -55 11 -83 17 -65 14 -126 26 -200 38
-159 27 -277 51 -350 72 -22 6 -52 14 -68 17 -15 3 -30 9 -33 14 -3 5 -14 9
-25 9 -10 0 -27 4 -37 9 -22 12 -72 33 -147 61 -33 12 -70 26 -82 31 -13 5
-34 14 -48 19 -14 6 -35 14 -47 19 -32 13 -155 57 -203 72 -22 7 -44 17 -49
21 -6 4 -22 8 -37 8 -15 0 -30 4 -33 9 -3 5 -18 11 -33 14 -16 3 -46 10 -68
16 -80 19 -392 89 -505 112 -42 8 -77 16 -167 38 -62 15 -196 51 -223 60 -14
5 -45 14 -70 21 -79 22 -172 52 -290 93 -63 22 -127 42 -143 44 -15 3 -30 9
-33 14 -3 5 -15 9 -28 9 -12 0 -26 3 -29 7 -4 3 -42 18 -84 33 -203 72 -261
93 -300 111 -24 10 -46 19 -50 19 -4 0 39 -46 96 -102z"/>
<path d="M11775 14510 c-104 -8 -176 -20 -258 -41 -49 -12 -108 -9 -252 11
-169 23 -594 6 -720 -29 -16 -5 -57 -14 -90 -21 -33 -7 -64 -17 -70 -22 -5 -4
-19 -8 -31 -8 -13 0 -26 -4 -29 -10 -3 -5 -15 -10 -26 -10 -10 0 -27 -4 -37
-9 -9 -5 -35 -17 -57 -26 -22 -10 -65 -30 -95 -45 -43 -21 -76 -29 -145 -34
-179 -12 -208 -24 -45 -19 135 5 161 9 200 29 92 46 199 84 290 104 30 6 71
16 90 20 77 19 165 25 375 25 204 0 305 -8 465 -37 76 -14 148 -13 195 1 86
27 173 43 320 62 107 13 478 6 545 -11 173 -43 248 -72 308 -117 31 -23 37
-24 77 -14 87 22 290 7 390 -28 17 -6 38 -14 48 -17 9 -4 17 -10 17 -15 0 -5
5 -9 11 -9 22 0 -11 28 -64 53 -81 39 -160 50 -317 45 -102 -4 -143 -2 -150 7
-23 27 -182 92 -306 124 -150 39 -437 58 -639 41z"/>
<path d="M21230 13870 c-33 -20 -105 -50 -120 -50 -9 0 -20 -4 -25 -8 -6 -5
-41 -21 -80 -36 -38 -15 -79 -32 -90 -36 -11 -4 -36 -13 -55 -20 -19 -7 -44
-16 -55 -21 -16 -7 -267 -90 -391 -129 -17 -6 -40 -10 -52 -10 -11 0 -23 -4
-26 -9 -3 -5 -23 -11 -43 -14 -21 -3 -58 -10 -83 -15 -280 -59 -531 -72 -1010
-52 -678 27 -889 25 -1145 -11 -238 -34 -237 -34 -500 -85 -151 -29 -318 -70
-347 -85 -10 -5 -23 -9 -29 -9 -19 0 -239 -109 -286 -141 -23 -16 -44 -29 -48
-29 -3 0 -11 -4 -18 -10 -30 -25 -108 -80 -112 -80 -3 0 -13 -6 -22 -14 -10
-8 -49 -40 -88 -71 -38 -31 -101 -87 -140 -125 -233 -225 -326 -351 -404 -543
-14 -35 -14 -207 0 -261 6 -22 15 -57 20 -76 5 -19 25 -84 44 -145 56 -174 58
-283 5 -398 -10 -23 -24 -60 -31 -82 -6 -22 -15 -49 -20 -60 -23 -58 -33 -182
-19 -226 27 -81 77 -95 216 -58 43 12 96 25 117 30 20 5 56 14 80 19 91 22
207 35 322 34 165 0 273 -18 520 -85 68 -18 107 -21 265 -21 203 -1 346 18
563 73 23 6 57 13 75 16 18 3 35 9 38 14 3 5 16 9 29 9 13 0 34 4 47 9 13 5
68 26 123 46 110 40 119 44 187 74 26 12 50 21 53 21 7 0 253 123 310 155 28
15 75 44 105 64 30 20 67 42 81 49 27 14 266 192 320 238 37 32 164 151 188
175 56 56 164 174 206 224 27 33 52 62 55 65 3 3 17 21 32 40 15 19 37 47 50
62 13 14 53 66 90 115 157 205 244 331 433 628 251 394 320 484 546 708 139
137 174 180 119 147z"/>
<path d="M13675 13374 c-81 -16 -206 -53 -219 -66 -6 -4 -17 -8 -25 -8 -22 0
-198 -91 -283 -145 -103 -67 -198 -145 -321 -264 -89 -86 -107 -109 -105 -130
6 -50 17 -45 199 103 34 28 237 166 244 166 4 0 19 8 33 19 30 21 126 70 187
96 22 9 49 21 60 26 169 72 378 103 550 83 190 -23 279 -50 460 -141 110 -55
323 -199 409 -275 25 -23 29 -22 51 2 17 18 15 21 -51 87 -65 64 -130 124
-184 167 -127 102 -354 219 -500 257 -163 42 -362 51 -505 23z"/>
<path d="M8830 13248 c-25 -5 -70 -14 -100 -20 -100 -19 -238 -61 -355 -108
-79 -32 -238 -109 -345 -168 -30 -17 -70 -38 -88 -48 -44 -23 -60 -53 -37 -70
17 -13 19 -13 100 21 17 7 89 36 160 65 72 29 139 56 150 60 64 27 282 92 365
110 30 6 74 15 98 21 23 5 61 9 85 9 23 0 67 4 97 9 55 9 286 -7 390 -27 187
-36 424 -154 658 -327 51 -38 66 -45 77 -35 8 7 15 19 15 26 0 26 -196 206
-281 259 -9 6 -34 22 -55 36 -125 83 -315 155 -482 183 -102 18 -375 20 -452
4z"/>
<path d="M8690 12748 c-62 -9 -85 -14 -182 -39 -71 -19 -194 -71 -240 -101
-14 -10 -31 -18 -37 -18 -6 0 -11 -4 -11 -8 0 -5 -12 -14 -26 -21 -64 -29
-191 -152 -281 -273 -137 -183 -234 -479 -202 -611 38 -154 226 -320 529 -464
152 -72 171 -80 326 -131 156 -51 226 -68 419 -102 243 -42 558 -38 755 10 25
6 60 14 78 17 18 3 35 9 38 14 3 5 14 9 25 9 10 0 27 4 37 9 9 5 31 14 47 21
120 49 246 134 343 231 l64 62 -7 61 c-6 58 -11 80 -35 159 -5 18 -10 41 -10
50 0 10 -4 25 -9 35 -5 9 -19 49 -31 87 -12 39 -28 85 -36 103 -8 17 -21 48
-29 67 -35 82 -52 114 -94 185 -25 41 -48 77 -52 80 -3 3 -21 28 -39 55 -44
64 -201 221 -265 265 -27 18 -52 36 -55 39 -31 35 -256 134 -385 169 -176 48
-453 66 -635 40z m-179 -202 c26 -8 60 -21 75 -29 38 -20 114 -95 114 -113 0
-8 4 -14 8 -14 13 0 32 -86 32 -145 0 -100 -68 -203 -167 -252 -128 -62 -300
-20 -375 94 -36 55 -50 106 -49 179 1 79 29 142 88 202 45 45 70 58 143 78 62
16 78 16 131 0z m590 -525 c35 -35 37 -71 8 -112 -17 -25 -27 -29 -66 -29 -37
0 -50 5 -69 28 -32 37 -30 73 5 111 39 41 82 42 122 2z"/>
<path d="M13795 12755 c-5 -3 -44 -9 -85 -14 -233 -30 -456 -118 -625 -246
-42 -32 -197 -184 -231 -225 -92 -115 -181 -274 -241 -430 -14 -36 -28 -74
-33 -85 -15 -40 -52 -181 -89 -339 l-12 -50 73 -74 c80 -82 208 -171 308 -216
36 -16 73 -32 82 -37 10 -5 27 -9 37 -9 11 0 22 -4 25 -9 3 -5 20 -11 38 -14
18 -3 53 -11 78 -17 236 -58 586 -50 903 20 26 5 66 14 90 19 205 45 555 190
703 292 23 16 45 29 49 29 12 0 141 108 181 152 23 24 54 66 70 94 27 46 29
56 29 154 0 96 -5 128 -37 225 -27 81 -87 204 -138 284 -49 76 -197 231 -256
268 -24 16 -44 31 -44 36 0 4 -5 7 -11 7 -6 0 -23 8 -37 18 -100 69 -256 127
-417 153 -63 11 -393 22 -410 14z m-183 -207 c99 -22 184 -94 226 -191 14 -34
16 -183 2 -192 -5 -3 -10 -15 -10 -25 0 -29 -95 -125 -147 -151 -38 -17 -66
-22 -130 -23 -52 0 -88 5 -95 12 -7 7 -20 12 -29 12 -22 0 -116 85 -136 124
-62 118 -38 262 60 358 45 43 67 55 137 74 60 16 61 16 122 2z m611 -529 c24
-30 22 -87 -5 -116 -16 -17 -32 -23 -64 -23 -37 0 -47 5 -68 33 -15 19 -26 39
-26 46 0 24 32 72 53 81 33 14 90 3 110 -21z"/>
<path d="M10997 11296 c-38 -36 -57 -90 -57 -165 0 -53 4 -72 20 -88 30 -33
55 -36 101 -13 26 12 63 20 95 20 47 0 55 -3 95 -44 71 -71 154 -82 242 -33
20 11 37 23 37 26 1 3 10 17 21 31 18 21 28 24 75 22 31 -1 69 -11 89 -22 47
-27 67 -25 99 6 23 24 26 35 26 94 0 37 -6 83 -14 102 -15 34 -62 88 -77 88
-14 0 -11 -28 6 -53 23 -35 31 -130 12 -145 -12 -11 -21 -9 -49 8 -26 16 -50
20 -116 20 l-83 0 -45 -46 c-38 -40 -51 -47 -84 -47 -33 0 -46 7 -84 47 l-45
46 -81 0 c-61 0 -90 -5 -119 -20 -34 -17 -41 -18 -51 -5 -16 19 -7 108 15 141
16 25 20 54 6 54 -4 0 -20 -11 -34 -24z"/>
<path d="M10828 10387 c-98 -36 -182 -80 -312 -164 -129 -83 -282 -215 -271
-233 10 -16 23 -12 72 21 130 90 315 192 493 272 52 24 200 28 310 9 182 -32
377 -32 551 -2 30 6 122 10 204 10 136 0 155 -2 224 -27 76 -27 202 -89 253
-124 14 -11 29 -19 33 -19 3 0 21 -11 39 -25 18 -14 38 -25 44 -25 7 0 12 -4
12 -9 0 -15 39 -20 50 -6 8 9 2 20 -23 41 -159 136 -279 213 -413 264 -79 30
-261 37 -472 19 -193 -17 -304 -17 -447 -1 -222 26 -273 26 -347 -1z"/>
<path d="M15696 10165 c-9 -13 -16 -27 -16 -30 0 -15 -98 -143 -135 -177 -38
-35 -44 -37 -106 -38 -80 0 -129 -19 -163 -62 l-25 -33 -31 19 c-22 12 -51 18
-98 18 -57 0 -80 -6 -144 -36 -68 -32 -86 -36 -155 -36 -43 0 -96 5 -118 10
-22 5 -89 10 -150 10 -106 1 -175 -12 -260 -50 -89 -39 -110 -42 -156 -23 -61
24 -190 24 -242 0 -37 -18 -38 -18 -95 8 -83 39 -92 42 -150 55 -76 17 -133 1
-225 -64 -29 -20 -16 -21 -182 27 -22 7 -96 12 -165 12 -116 0 -126 2 -143 22
-43 54 -189 48 -254 -10 -21 -18 -24 -19 -55 -4 -55 26 -85 30 -140 17 -50
-12 -104 -41 -120 -64 -5 -7 -18 -6 -41 2 -92 33 -225 2 -297 -71 -34 -35 -36
-35 -97 -30 -98 9 -202 -24 -241 -76 -20 -27 -28 -31 -72 -31 -52 0 -65 -4
-175 -56 -41 -19 -95 -35 -130 -39 -75 -8 -167 -32 -223 -58 -29 -13 -52 -17
-75 -12 -87 18 -123 17 -173 -6 -46 -22 -68 -37 -99 -66 -9 -9 -46 -13 -109
-13 -101 0 -168 -16 -219 -52 -19 -13 -37 -18 -55 -15 -116 24 -157 28 -241
23 -51 -3 -99 -9 -105 -14 -6 -4 -29 -14 -51 -21 -92 -31 -171 -107 -217 -210
-27 -58 -29 -71 -24 -135 10 -123 10 -140 -7 -199 -35 -120 -13 -263 61 -407
18 -36 46 -82 63 -102 l30 -38 3 -162 c6 -221 29 -355 77 -450 20 -39 6 -107
-31 -151 -8 -10 -33 -28 -55 -40 -59 -31 -233 -28 -370 7 -134 35 -137 35
-159 -16 -64 -147 -60 -245 11 -308 44 -41 125 -70 189 -70 32 0 46 -6 70 -31
51 -54 86 -64 212 -63 62 0 122 5 135 11 12 6 45 18 72 27 45 14 56 14 110 1
80 -19 208 -19 245 0 16 8 34 29 41 48 l12 34 79 -5 c92 -5 172 9 338 59 62
19 100 23 220 24 118 1 151 5 180 20 60 30 90 77 90 140 0 44 12 50 57 28 27
-12 61 -18 114 -18 72 0 80 2 117 33 l41 32 118 0 c130 0 195 16 258 64 18 14
57 31 87 37 104 21 210 87 313 194 54 56 64 62 140 76 28 6 68 14 90 19 22 5
54 12 70 15 32 7 64 19 107 41 14 8 40 14 57 14 77 0 160 51 211 129 12 17 27
24 60 27 206 15 276 41 362 132 45 48 54 53 82 48 87 -16 106 -17 139 -7 19 7
37 20 39 29 3 10 24 22 49 30 158 46 341 131 378 176 8 10 29 16 55 16 39 0
96 16 125 34 7 5 48 27 90 50 l76 40 122 1 c67 0 125 -3 128 -7 4 -4 -11 -28
-34 -54 -43 -49 -98 -155 -114 -219 -5 -18 -24 -89 -58 -210 -12 -41 -25 -78
-40 -107 -4 -9 -13 -56 -19 -105 -36 -287 -38 -295 -101 -354 -42 -39 -51 -53
-58 -97 -4 -28 -4 -76 0 -107 9 -68 39 -165 50 -165 5 0 9 -6 9 -14 0 -8 11
-24 25 -37 29 -28 31 -46 8 -72 -13 -14 -18 -36 -18 -81 0 -75 18 -134 61
-203 47 -74 72 -101 132 -139 30 -20 52 -41 52 -51 0 -10 17 -39 37 -64 69
-84 172 -143 281 -162 56 -10 68 -9 95 7 31 17 32 17 46 -4 8 -12 35 -35 60
-53 42 -29 52 -31 126 -30 81 0 131 12 194 46 19 10 62 23 95 28 116 19 204
78 253 169 20 37 196 163 301 216 55 28 112 86 112 116 0 27 22 68 36 68 7 0
24 12 38 27 32 34 58 106 87 243 6 30 21 75 31 100 56 128 65 157 74 240 3 36
17 88 30 116 19 41 24 68 24 133 0 71 -15 171 -26 171 -2 0 -42 -25 -89 -55
-46 -30 -89 -55 -95 -55 -5 0 -10 -3 -10 -7 0 -5 -10 -13 -23 -19 -12 -7 -60
-32 -107 -56 -47 -24 -105 -50 -130 -57 -25 -7 -62 -17 -82 -23 -40 -12 -48
-27 -48 -96 0 -53 -14 -82 -40 -82 -29 0 -33 -15 -32 -121 l1 -99 -57 0 c-64
-1 -73 -6 -122 -70 -54 -70 -77 -115 -116 -225 -18 -53 -31 -75 -44 -75 -4 0
-27 30 -51 67 -40 61 -44 73 -44 128 0 45 7 73 28 114 15 30 27 63 27 74 0 11
-16 42 -35 68 -30 41 -35 57 -35 102 0 45 -4 58 -26 78 -48 44 -49 55 -10 101
53 62 62 149 16 161 -19 5 -20 13 -20 126 0 67 -4 129 -9 139 -34 66 -34 69
-14 92 11 11 30 40 42 63 39 78 51 137 51 261 0 65 5 137 11 160 27 103 35
124 61 162 33 51 106 116 153 138 19 9 56 33 82 53 26 20 66 47 88 58 28 15
42 31 49 54 11 37 81 121 102 121 8 0 14 4 14 9 0 5 13 14 29 21 16 6 39 21
51 32 l22 20 -34 35 c-64 68 -105 88 -183 88 -41 0 -94 -8 -128 -19 -95 -30
-92 -25 63 114 46 41 101 98 122 125 21 28 42 55 46 60 54 70 79 236 48 319
-29 75 -185 209 -349 300 -37 20 -68 36 -71 36 -2 0 -11 -11 -20 -25z"/>
<path d="M7136 10129 c-22 -11 -46 -29 -55 -40 -10 -13 -39 -23 -81 -30 -115
-19 -144 -41 -233 -179 -100 -154 -110 -234 -55 -430 35 -129 112 -247 231
-360 l48 -46 10 -104 c5 -58 16 -139 25 -180 8 -41 18 -87 21 -103 3 -15 9
-30 14 -33 5 -3 9 -13 9 -24 0 -23 50 -119 97 -184 82 -113 284 -297 381 -347
15 -8 50 -28 77 -45 50 -30 318 -164 329 -164 4 0 28 -9 54 -21 43 -19 63 -28
117 -50 39 -16 291 -96 338 -107 56 -14 166 -15 186 -3 9 6 26 2 50 -12 54
-31 171 -90 216 -109 75 -30 180 -58 224 -58 17 0 39 -4 49 -9 35 -18 69 -31
142 -54 355 -114 550 -110 550 13 0 21 -4 41 -9 44 -4 3 -12 20 -16 38 -4 18
-11 51 -17 73 -21 86 -29 166 -34 320 -5 132 -9 164 -23 180 -33 39 -72 108
-100 178 -54 135 -66 277 -33 403 11 41 15 78 11 90 -4 10 -8 50 -8 88 -2 119
50 231 144 314 52 46 160 104 226 121 47 13 262 10 325 -4 23 -5 40 -2 60 12
44 28 111 42 212 43 50 0 92 4 92 8 0 14 104 71 160 88 45 13 63 14 98 5 50
-13 94 -14 107 -3 6 5 30 14 55 21 25 8 56 17 70 22 14 4 54 11 90 14 43 5 88
19 134 41 l70 34 -86 0 c-47 0 -141 -10 -209 -22 -150 -27 -169 -27 -239 -1
-77 29 -143 43 -198 43 -45 0 -158 -20 -194 -35 -9 -4 -43 2 -75 13 -76 26
-165 39 -348 52 -267 18 -318 13 -450 -45 -22 -10 -60 -12 -141 -8 -135 7
-202 -10 -267 -67 l-42 -38 -60 13 c-33 7 -96 25 -140 40 -55 18 -116 30 -195
36 -63 5 -137 12 -165 15 -34 4 -85 -2 -155 -17 -66 -14 -158 -25 -245 -28
-77 -3 -145 -10 -152 -14 -12 -8 -79 12 -183 53 -269 106 -577 332 -733 537
-18 23 -34 43 -37 43 -3 0 -23 -9 -44 -21z"/>
<path d="M10912 10144 c-48 -11 -156 -60 -160 -73 -4 -11 6 -12 54 -6 102 13
226 10 284 -7 101 -29 210 -41 330 -35 141 7 212 16 224 28 6 5 22 9 37 9 14
0 39 5 56 10 16 6 81 14 143 18 119 7 148 21 93 44 -39 16 -297 15 -348 -1
-67 -22 -375 -26 -465 -7 -81 18 -210 28 -248 20z"/>
<path d="M6860 7824 c-63 -21 -88 -33 -145 -72 -59 -40 -96 -89 -115 -152 -8
-25 -26 -63 -40 -85 -42 -64 -95 -167 -107 -210 -38 -132 -40 -163 -22 -242
13 -55 23 -82 52 -138 22 -44 67 -108 80 -113 4 -2 7 -17 7 -33 0 -54 49 -115
118 -148 26 -12 53 -26 61 -30 8 -4 20 -29 28 -57 17 -61 30 -90 61 -131 21
-30 28 -33 73 -33 49 0 50 -1 83 -52 43 -68 132 -152 184 -175 34 -14 46 -29
78 -91 21 -40 61 -98 90 -128 45 -47 57 -54 91 -54 35 0 40 -4 68 -51 34 -57
99 -119 126 -119 11 0 25 -15 35 -37 26 -55 73 -96 104 -89 35 6 42 0 74 -66
30 -61 50 -84 81 -90 12 -2 24 -16 31 -38 11 -35 78 -120 94 -120 11 0 98 225
121 313 42 165 80 394 95 569 l7 78 -32 6 c-17 4 -31 13 -31 20 0 25 -89 57
-192 69 -56 7 -60 10 -116 74 -32 36 -67 77 -78 90 -79 101 -156 166 -224 188
-19 7 -85 15 -147 19 l-112 7 2 96 c1 88 -1 100 -23 131 -30 44 -46 60 -57 60
-17 0 -72 55 -90 90 -17 31 -27 62 -64 186 -5 17 -9 39 -9 49 0 31 -28 43 -76
32 -24 -6 -46 -8 -50 -5 -3 3 4 21 15 39 26 42 26 66 2 116 -46 94 -51 144
-21 205 26 54 26 58 -10 91 -16 16 -30 33 -30 38 0 12 -17 11 -70 -7z"/>
<path d="M15578 7483 c-7 -16 -18 -35 -26 -45 -12 -14 -10 -22 12 -63 17 -30
26 -61 26 -90 0 -24 4 -46 9 -49 18 -11 51 -97 51 -132 0 -20 -10 -55 -21 -78
-12 -22 -25 -49 -30 -58 -15 -30 -11 -88 6 -88 8 0 15 6 15 14 0 15 51 109 92
169 31 46 104 105 141 113 25 5 27 9 27 60 0 61 20 117 50 142 13 11 21 32 22
60 l3 43 -143 5 c-79 3 -155 9 -168 15 -40 15 -54 11 -66 -18z"/>
</g>
</svg>
